<?xml version="1.0" encoding="utf-8"?>
<!DOCTYPE svg PUBLIC "-//W3C//DTD SVG 1.1 Tiny//EN" "http://www.w3.org/Graphics/SVG/1.1/DTD/svg11-tiny.dtd">
<svg version="1.1" baseProfile="tiny" id="Layer_1" xmlns="http://www.w3.org/2000/svg" xmlns:xlink="http://www.w3.org/1999/xlink"
	 x="0px" y="0px" viewBox="0 0 900 900" xml:space="preserve">
<path fill-rule="evenodd" fill="#FFFFFF" d="M450.6,12.5c-247.9,0-448.8,201-448.8,448.9c0,198.3,128.6,366.5,307,425.9
	c22.4,4.1,30.6-9.7,30.6-21.6c0-10.7-0.4-38.9-0.6-76.3c-124.9,27.1-151.2-60.2-151.2-60.2c-20.4-51.9-49.8-65.7-49.8-65.7
	c-40.8-27.9,3.1-27.3,3.1-27.3c45,3.2,68.8,46.3,68.8,46.3c40,68.6,105.1,48.8,130.6,37.3c4.1-29,15.7-48.8,28.5-60
	C269,648.5,164.2,610,164.2,437.9c0-49,17.5-89.1,46.2-120.4c-4.6-11.4-20-57,4.4-118.8c0,0,37.7-12.1,123.4,46
	c35.8-10,74.2-14.9,112.4-15.1c38.1,0.2,76.5,5.2,112.4,15.1c85.7-58.1,123.3-46,123.3-46c24.5,61.8,9.1,107.4,4.5,118.8
	c28.8,31.4,46.1,71.4,46.1,120.4c0,172.4-104.9,210.4-204.9,221.5c16.1,13.9,30.5,41.3,30.5,83.1c0,60-0.6,108.4-0.6,123.1
	c0,12,8.1,26,30.9,21.6C771,827.8,899.5,659.7,899.5,461.4C899.5,213.5,698.5,12.5,450.6,12.5z"/>
</svg>