<svg xmlns="http://www.w3.org/2000/svg" xmlns:xlink="http://www.w3.org/1999/xlink" version="1.1" baseProfile="tiny" x="0px" y="0px" viewBox="0 0 259 187" xml:space="preserve"><g display="none"><rect x="-136.2" y="-71.5" display="inline" fill="#282828" width="562.3" height="335"/></g><g display="none"><path display="inline" fill="#C9C9C9" d="M135.7 31c8.8-0.2 17.5 0.1 25.9 2.7c5 1.6 9.6 3.9 12.8 8.3c2.5 3.4 3.5 7.2 3.6 11.4 c0 1.6-0.6 2.3-2.1 2.8c-6.9 2.2-8.9 4.7-9.3 11.7c-0.1 1.6-0.4 2-2.1 1.7c-8.2-1.5-49.9-1.5-57.8 0c-1.4 0.3-1.9 0-1.9-1.4 c0.1-6.7-3.3-10.7-9.7-12.1c-1.4-0.3-1.7-1.1-1.7-2.4c0-7.9 3.7-13.6 10.4-17.4c6.9-3.9 14.6-4.8 22.3-5.3 C129.4 30.8 132.6 31 135.7 31z"/><path display="inline" fill="#C9C9C9" d="M185.3 68.5c-0.6 6.1-2 12.7-5 18.9c-1.4 2.9-2 5.6-5.8 5.6c-1.5 0-1.2 1.1-1.2 2 c0.2 2.1-1.1 2.7-2.8 2.7c-1.8 0-2.9-0.8-2.6-2.8c0.2-1.8-0.8-1.9-2.2-1.9c-19.9 0-39.8 0-59.7 0c-1.6 0-2.6 0.3-2.3 2.1 c0.2 1.9-0.9 2.6-2.6 2.6c-1.7 0-3-0.5-2.7-2.7c0.2-1.3-0.2-2.1-1.8-2.1c-2.5 0-3.2-1.5-4.3-3.5c-4.1-7-5.7-14.7-6.1-22.7 c-0.2-4.5 2.6-7.8 7-8c4.6-0.2 8.2 2.9 8.7 7.6c0.2 1.8 0.1 3.7 0.1 5.5c0 1.6 0.6 2.3 2.2 1.8c9.7-2.8 55.5-2.1 62.3-0.2 c2.5 0.7 3.5 0 3.3-2.6c-0.1-1.2 0-2.4 0-3.7c0.1-5.1 3.5-8.5 8.4-8.5C183.1 58.9 185.5 62.5 185.3 68.5z"/><g display="inline"><path fill="#C9C9C9" d="M34.9 126.9v4.8c0.9-2.6 2.6-5.3 7.8-5.3c4.9 0 8.1 2.4 8.1 8.8v15.8h2.9v0.9H38.9v-0.9H41v-17 c0-4.5-0.6-5-1.9-5c-2.2 0-4.2 3.3-4.2 7.5v14.5h2.3v0.9H22.2v-0.9h2.9v-23.1h-2.9v-0.9H34.9z"/><path fill="#C9C9C9" d="M67 126.9v24H70v0.9H54.4v-0.9h2.9v-23.1h-3.1v-0.9H67z M62.3 113.5c3.2 0 5.2 1.6 5.2 4.8 c0 2.8-1.5 4.9-5.3 4.9c-4.2 0-5.2-2.7-5.2-4.9C57 115.8 58.4 113.5 62.3 113.5z"/><path fill="#C9C9C9" d="M93.5 123.2c0.2-0.8-0.2-1.6-1.3-1.6c-0.7 0-2.3 0.2-2.3 3.5c0 0.8 0.1 1.9 0.4 3.1c2 1.4 4 3.2 4 6.7 c0 6-4.3 9-10.7 9c-1.5 0-3.1-0.2-4.2-0.4c-1.8 1.2-2.3 1.7-2.3 2.2s0.6 0.7 3.4 0.7h5.3c5.9 0 11.9 1.4 11.9 8.5 c0 5.8-4.2 10-14.8 10c-9.1 0-13-2.2-13-5.6c0-2.6 2.2-3.7 4-4.2l3.1 1.4c-0.3 1.2-0.4 2-0.4 2.9c0 2.2 1.1 4.5 6.7 4.5 c5.6 0 8.5-2.3 8.5-5.6c0-2.5-1.2-3.5-6.7-3.5h-5.1c-6.2 0-7.9-2.6-7.9-4.9c0-3 1.9-4.5 6-6.9c-4.1-1.2-6.1-3.6-6.1-8 c0-4.9 3.4-8.8 11.3-8.8c2.6 0 4.1 0.4 5.8 1.3c-0.2-0.9-0.3-1.8-0.3-2.6c0-4.3 3-5.6 5.1-5.6c2.5 0 4.2 1.4 4.2 3.9 c0 2.4-1.6 3.5-3.3 3.5c-1.6 0-2.9-0.9-3-2.7L93.5 123.2z M80.9 136.8c0 4.9 0.9 6 2.5 6c1.4 0 2.3-0.8 2.3-6.3v-2.6 c0-5.9-0.8-6.7-2.3-6.7c-1.5 0-2.5 0.9-2.5 6.7V136.8z"/><path fill="#C9C9C9" d="M111 112.5v19.2c0.9-2.6 2.6-5.3 7.8-5.3c4.9 0 8.1 2.4 8.1 8.8v15.8h2.9v0.9h-14.8v-0.9h2.2v-17 c0-4.5-0.6-5-1.9-5c-2.2 0-4.2 3.3-4.2 7.5v14.5h2.3v0.9H98.4v-0.9h2.9v-37.4h-2.9v-0.9H111z"/><path fill="#C9C9C9" d="M133 127.8h-2.9v-0.9h2.9v-6.8l9.8-2.4v9.2h6.8v0.9h-6.8v17.7c0 3.1 0.5 4.8 2.3 4.8 c2.5 0 4.1-2.3 4.6-5.9l0.9 0.1c-0.5 4.1-2.2 7.9-8.6 7.9c-5.2 0-8.9-1.5-8.9-8V127.8z"/><path fill="#C9C9C9" d="M152.3 143h0.6c1.9 6.4 5.1 8.2 9.4 8.2c3.9 0 5.3-1.4 5.3-3.4c0-2.4-2.6-2.9-6.6-4 c-4.2-1.2-8.9-2.8-8.9-8.6c0-5.3 3.7-8.9 9.2-8.9c2.3 0 3.9 0.6 5.3 1.2c0.6 0.3 0.8 0.4 1.5 0.4c0.8 0 1.2-0.4 1.8-1.7h0.6v8H170 c-1.9-4.8-4.6-6.8-8.3-6.8c-3.5 0-4.9 1.4-4.9 3c0 2.4 3.1 3 6.6 3.9c4.1 1.1 8.8 2.8 8.8 9c0 6-3.9 9-9.8 9 c-2.5 0-4.3-0.5-6.3-1.5c-0.3-0.2-0.8-0.4-1-0.4c-0.7 0-1.4 0.5-2.3 1.9h-0.6V143z"/><path fill="#C9C9C9" d="M187.8 126.3c8.8 0 13 4.1 13 12.6c0 8.6-4 13.4-13.3 13.4c-8.8 0-13.3-4.7-13.3-12.9 C174.2 130.8 179.4 126.3 187.8 126.3z M190.8 137c0-5.7-0.2-9.8-3.1-9.8c-3.2 0-3.4 4.1-3.4 10v4.1c0 6.1 0.1 10 3.3 10 c3 0 3.1-3.1 3.1-9.9V137z"/><path fill="#C9C9C9" d="M214.9 118.5v8.4h6.9v0.9h-6.9v23.1h6.4v0.9h-19v-0.9h2.9v-23.1h-3v-0.9h3v-0.2c0-9.5 3.1-15.4 12.5-15.4 c6.6 0 8.3 3.3 8.3 5.9c0 3.1-1.9 4.6-4.4 4.6c-2.8 0-4.2-1.6-4.2-3.7c0-0.8 0.2-1.6 0.3-2.3h2c0.9-2.6-0.2-3.6-1.6-3.6 C215.3 112.2 214.9 114.5 214.9 118.5z"/><path fill="#C9C9C9" d="M235.9 139.5v-4c0-6.7-0.6-8.4-2.7-8.4c-0.9 0-2.5 0.4-2.5 2.1c0 0.4 0.1 0.9 0.3 1.5h1.3 c0.3 0.7 0.4 1.4 0.4 2.4c0 2.5-2 4.1-4.6 4.1c-3.3 0-4.5-1.8-4.5-4.4c0-4.4 3.8-6.4 11-6.4c8.2 0 11 2.3 11 9.9v10.6 c0 2.2 0.6 2.7 1.5 2.7c0.9 0 1.8-1 2.1-5.4l0.8 0.1c-0.3 6.3-2.2 8.1-6.7 8.1c-4.2 0-6.6-1.3-7.2-3.9c-0.8 2.5-2.4 3.9-6 3.9 c-3.7 0-7.8-1.1-7.8-6.3c0-5.3 4.6-6.5 12.1-6.5H235.9z M235.9 145.2v-4.9h-0.4c-2.2 0-3.3 1.6-3.3 4.8v0.8c0 3.8 0.4 4.3 1.4 4.3 S235.9 148.6 235.9 145.2z"/></g><polygon display="inline" fill="#B5A078" points="181.3,30.7 182.5,33.2 185.2,33.6 183.2,35.5 183.7,38.2 181.3,36.9 178.9,38.2 179.3,35.5 177.4,33.6 180.1,33.2"/><polygon display="inline" fill="#CCB37D" points="162.7,15.9 164.5,19.6 168.7,20.3 165.7,23.2 166.4,27.3 162.7,25.4 158.9,27.3 159.6,23.2 156.6,20.3 160.8,19.6"/><polygon display="inline" fill="#D8BB82" points="134.8,8.4 137.3,13.5 142.9,14.3 138.9,18.2 139.8,23.8 134.8,21.2 129.8,23.8 130.8,18.2 126.7,14.3 132.3,13.5"/><polygon display="inline" fill="#CCB37D" points="105.5,15.8 107.4,19.6 111.5,20.2 108.5,23.1 109.2,27.3 105.5,25.3 101.8,27.3 102.5,23.1 99.5,20.2 103.7,19.6"/><polygon display="inline" fill="#B5A078" points="86.2,31.2 87.4,33.6 90.1,34 88.1,35.9 88.6,38.6 86.2,37.3 83.8,38.6 84.2,35.9 82.3,34 85,33.6"/></g><g><path fill="#C9C9C9" d="M129.7 38c8.8-0.2 17.5 0.1 25.9 2.7c5 1.6 9.6 3.9 12.8 8.3c2.5 3.4 3.5 7.2 3.6 11.4 c0 1.6-0.6 2.3-2.1 2.8c-6.9 2.2-8.9 4.7-9.3 11.7c-0.1 1.6-0.4 2-2.1 1.7c-8.2-1.5-49.9-1.5-57.8 0c-1.4 0.3-1.9 0-1.9-1.4 c0.1-6.7-3.3-10.7-9.7-12.1c-1.4-0.3-1.7-1.1-1.7-2.4c0-7.9 3.7-13.6 10.4-17.4c6.9-3.9 14.6-4.8 22.3-5.3 C123.4 37.8 126.6 38 129.7 38z"/><path fill="#C9C9C9" d="M179.3 75.5c-0.6 6.1-2 12.7-5 18.9c-1.4 2.9-2 5.6-5.8 5.6c-1.5 0-1.2 1.1-1.2 2c0.2 2.1-1.1 2.7-2.8 2.7 c-1.8 0-2.9-0.8-2.6-2.8c0.2-1.8-0.8-1.9-2.2-1.9c-19.9 0-39.8 0-59.7 0c-1.6 0-2.6 0.3-2.3 2.1c0.2 1.9-0.9 2.6-2.6 2.6 c-1.7 0-3-0.5-2.7-2.7c0.2-1.3-0.2-2.1-1.8-2.1c-2.5 0-3.2-1.5-4.3-3.5c-4.1-7-5.7-14.7-6.1-22.7c-0.2-4.5 2.6-7.8 7-8 c4.6-0.2 8.2 2.9 8.7 7.6c0.2 1.8 0.1 3.7 0.1 5.5c0 1.6 0.6 2.3 2.2 1.8c9.7-2.8 55.5-2.1 62.3-0.2c2.5 0.7 3.5 0 3.3-2.6 c-0.1-1.2 0-2.4 0-3.7c0.1-5.1 3.5-8.5 8.4-8.5C177.1 65.9 179.5 69.5 179.3 75.5z"/><g><path fill="#C9C9C9" d="M28.9 133.9v4.8c0.9-2.6 2.6-5.3 7.8-5.3c4.9 0 8.1 2.4 8.1 8.8v15.8h2.9v0.9H32.9v-0.9H35v-17 c0-4.5-0.6-5-1.9-5c-2.2 0-4.2 3.3-4.2 7.5v14.5h2.3v0.9H16.2v-0.9h2.9v-23.1h-2.9v-0.9H28.9z"/><path fill="#C9C9C9" d="M61 133.9v24H64v0.9H48.4v-0.9h2.9v-23.1h-3.1v-0.9H61z M56.3 120.5c3.2 0 5.2 1.6 5.2 4.8 c0 2.8-1.5 4.9-5.3 4.9c-4.2 0-5.2-2.7-5.2-4.9C51 122.8 52.4 120.5 56.3 120.5z"/><path fill="#C9C9C9" d="M87.5 130.2c0.2-0.8-0.2-1.6-1.3-1.6c-0.7 0-2.3 0.2-2.3 3.5c0 0.8 0.1 1.9 0.4 3.1c2 1.4 4 3.2 4 6.7 c0 6-4.3 9-10.7 9c-1.5 0-3.1-0.2-4.2-0.4c-1.8 1.2-2.3 1.7-2.3 2.2s0.6 0.7 3.4 0.7h5.3c5.9 0 11.9 1.4 11.9 8.5 c0 5.8-4.2 10-14.8 10c-9.1 0-13-2.2-13-5.6c0-2.6 2.2-3.7 4-4.2l3.1 1.4c-0.3 1.2-0.4 2-0.4 2.9c0 2.2 1.1 4.5 6.7 4.5 c5.6 0 8.5-2.3 8.5-5.6c0-2.5-1.2-3.5-6.7-3.5h-5.1c-6.2 0-7.9-2.6-7.9-4.9c0-3 1.9-4.5 6-6.9c-4.1-1.2-6.1-3.6-6.1-8 c0-4.9 3.4-8.8 11.3-8.8c2.6 0 4.1 0.4 5.8 1.3c-0.2-0.9-0.3-1.8-0.3-2.6c0-4.3 3-5.6 5.1-5.6c2.5 0 4.2 1.4 4.2 3.9 c0 2.4-1.6 3.5-3.3 3.5c-1.6 0-2.9-0.9-3-2.7L87.5 130.2z M74.9 143.8c0 4.9 0.9 6 2.5 6c1.4 0 2.3-0.8 2.3-6.3v-2.6 c0-5.9-0.8-6.7-2.3-6.7c-1.5 0-2.5 0.9-2.5 6.7V143.8z"/><path fill="#C9C9C9" d="M105 119.5v19.2c0.9-2.6 2.6-5.3 7.8-5.3c4.9 0 8.1 2.4 8.1 8.8v15.8h2.9v0.9h-14.8v-0.9h2.2v-17 c0-4.5-0.6-5-1.9-5c-2.2 0-4.2 3.3-4.2 7.5v14.5h2.3v0.9H92.4v-0.9h2.9v-37.4h-2.9v-0.9H105z"/><path fill="#C9C9C9" d="M127 134.8h-2.9v-0.9h2.9v-6.8l9.8-2.4v9.2h6.8v0.9h-6.8v17.7c0 3.1 0.5 4.8 2.3 4.8 c2.5 0 4.1-2.3 4.6-5.9l0.9 0.1c-0.5 4.1-2.2 7.9-8.6 7.9c-5.2 0-8.9-1.5-8.9-8V134.8z"/><path fill="#C9C9C9" d="M146.3 150h0.6c1.9 6.4 5.1 8.2 9.4 8.2c3.9 0 5.3-1.4 5.3-3.4c0-2.4-2.6-2.9-6.6-4 c-4.2-1.2-8.9-2.8-8.9-8.6c0-5.3 3.7-8.9 9.2-8.9c2.3 0 3.9 0.6 5.3 1.2c0.6 0.3 0.8 0.4 1.5 0.4c0.8 0 1.2-0.4 1.8-1.7h0.6v8H164 c-1.9-4.8-4.6-6.8-8.3-6.8c-3.5 0-4.9 1.4-4.9 3c0 2.4 3.1 3 6.6 3.9c4.1 1.1 8.8 2.8 8.8 9c0 6-3.9 9-9.8 9 c-2.5 0-4.3-0.5-6.3-1.5c-0.3-0.2-0.8-0.4-1-0.4c-0.7 0-1.4 0.5-2.3 1.9h-0.6V150z"/><path fill="#C9C9C9" d="M181.8 133.3c8.8 0 13 4.1 13 12.6c0 8.6-4 13.4-13.3 13.4c-8.8 0-13.3-4.7-13.3-12.9 C168.2 137.8 173.4 133.3 181.8 133.3z M184.8 144c0-5.7-0.2-9.8-3.1-9.8c-3.2 0-3.4 4.1-3.4 10v4.1c0 6.1 0.1 10 3.3 10 c3 0 3.1-3.1 3.1-9.9V144z"/><path fill="#C9C9C9" d="M208.9 125.5v8.4h6.9v0.9h-6.9v23.1h6.4v0.9h-19v-0.9h2.9v-23.1h-3v-0.9h3v-0.2c0-9.5 3.1-15.4 12.5-15.4 c6.6 0 8.3 3.3 8.3 5.9c0 3.1-1.9 4.6-4.4 4.6c-2.8 0-4.2-1.6-4.2-3.7c0-0.8 0.2-1.6 0.3-2.3h2c0.9-2.6-0.2-3.6-1.6-3.6 C209.3 119.2 208.9 121.5 208.9 125.5z"/><path fill="#C9C9C9" d="M229.9 146.5v-4c0-6.7-0.6-8.4-2.7-8.4c-0.9 0-2.5 0.4-2.5 2.1c0 0.4 0.1 0.9 0.3 1.5h1.3 c0.3 0.7 0.4 1.4 0.4 2.4c0 2.5-2 4.1-4.6 4.1c-3.3 0-4.5-1.8-4.5-4.4c0-4.4 3.8-6.4 11-6.4c8.2 0 11 2.3 11 9.9v10.6 c0 2.2 0.6 2.7 1.5 2.7c0.9 0 1.8-1 2.1-5.4l0.8 0.1c-0.3 6.3-2.2 8.1-6.7 8.1c-4.2 0-6.6-1.3-7.2-3.9c-0.8 2.5-2.4 3.9-6 3.9 c-3.7 0-7.8-1.1-7.8-6.3c0-5.3 4.6-6.5 12.1-6.5H229.9z M229.9 152.2v-4.9h-0.4c-2.2 0-3.3 1.6-3.3 4.8v0.8c0 3.8 0.4 4.3 1.4 4.3 S229.9 155.6 229.9 152.2z"/></g><polygon fill="#B5A078" points="175.3,37.7 176.5,40.2 179.2,40.6 177.2,42.5 177.7,45.2 175.3,43.9 172.9,45.2 173.3,42.5 171.4,40.6 174.1,40.2"/><polygon fill="#CCB37D" points="156.7,22.9 158.5,26.6 162.7,27.3 159.7,30.2 160.4,34.3 156.7,32.4 152.9,34.3 153.6,30.2 150.6,27.3 154.8,26.6"/><polygon fill="#D8BB82" points="128.8,15.4 131.3,20.5 136.9,21.3 132.9,25.2 133.8,30.8 128.8,28.2 123.8,30.8 124.8,25.2 120.7,21.3 126.3,20.5"/><polygon fill="#CCB37D" points="99.5,22.8 101.4,26.6 105.5,27.2 102.5,30.1 103.2,34.3 99.5,32.3 95.8,34.3 96.5,30.1 93.5,27.2 97.7,26.6"/><polygon fill="#B5A078" points="80.2,38.2 81.4,40.6 84.1,41 82.1,42.9 82.6,45.6 80.2,44.3 77.8,45.6 78.2,42.9 76.3,41 79,40.6"/></g></svg>